<?xml version="1.0" encoding="UTF-8" standalone="no"?>
<!-- Created with Inkscape (http://www.inkscape.org/) -->

<svg
   xmlns:dc="http://purl.org/dc/elements/1.1/"
   xmlns:cc="http://creativecommons.org/ns#"
   xmlns:rdf="http://www.w3.org/1999/02/22-rdf-syntax-ns#"
   xmlns:svg="http://www.w3.org/2000/svg"
   xmlns="http://www.w3.org/2000/svg"
   xmlns:sodipodi="http://sodipodi.sourceforge.net/DTD/sodipodi-0.dtd"
   xmlns:inkscape="http://www.inkscape.org/namespaces/inkscape"
   width="403.77588"
   height="80.165596"
   id="svg2"
   version="1.1"
   inkscape:version="0.48.5 r10040"
   sodipodi:docname="text sample.svg">
  <defs
     id="defs4" />
  <sodipodi:namedview
     id="base"
     pagecolor="#ffffff"
     bordercolor="#666666"
     borderopacity="1.0"
     inkscape:pageopacity="0.0"
     inkscape:pageshadow="2"
     inkscape:zoom="1.979899"
     inkscape:cx="154.37861"
     inkscape:cy="55.896304"
     inkscape:document-units="px"
     inkscape:current-layer="layer1"
     showgrid="false"
     inkscape:window-width="1920"
     inkscape:window-height="1012"
     inkscape:window-x="-8"
     inkscape:window-y="-8"
     inkscape:window-maximized="1"
     fit-margin-top="0"
     fit-margin-left="0"
     fit-margin-right="0"
     fit-margin-bottom="0" />
  <metadata
     id="metadata7">
    <rdf:RDF>
      <cc:Work
         rdf:about="">
        <dc:format>image/svg+xml</dc:format>
        <dc:type
           rdf:resource="http://purl.org/dc/dcmitype/StillImage" />
        <dc:title />
      </cc:Work>
    </rdf:RDF>
  </metadata>
  <g
     inkscape:label="Layer 1"
     inkscape:groupmode="layer"
     id="layer1"
     transform="translate(-55.520214,-115.85656)">
    <path
       inkscape:connector-curvature="0"
       id="path2990"
       d="m 121.38202,193.95241 c -11.49626,2.07998 -26.950165,3.68598 -27.750525,-11.9962 1.13332,-10.28636 -17.79278,-21.6768 -15.55516,-6.119 3.0149,12.62546 1.9043,23.9913 -14.41014,18.96972 -15.95908,-0.6366 -2.93852,-25.7256 -6.33222,-36.75766 0.39714,-13.0416 -0.813,-26.40558 -0.68154,-39.25106 14.07638,-1.58326 28.7005,-1.82222 42.8647,-0.5614 17.114605,1.61536 25.243045,21.38184 18.255405,35.90314 -6.14576,7.29054 -13.74334,12.08724 -4.62624,21.38026 2.8244,6.09408 6.16126,12.0346 8.23572,18.4322 z M 98.413275,144.89773 c 0.76584,-15.74776 -29.26182,-15.52632 -20.82238,2.65238 -3.31238,11.79608 22.962825,8.2982 20.82238,-2.65238 z"
       style="font-size:56px;font-style:normal;font-variant:normal;font-weight:bold;font-stretch:normal;line-height:125%;letter-spacing:0px;word-spacing:0px;fill:#001aa7;fill-opacity:1;stroke:none;font-family:Berlin Sans FB Demi;-inkscape-font-specification:Berlin Sans FB Demi Bold" />
    <path
       inkscape:connector-curvature="0"
       id="path2992"
       d="m 179.73358,167.59303 c 1.61502,18.86372 -18.71938,32.83834 -36.09546,26.92334 -24.19784,-5.5852 -25.69402,-44.25652 -2.95142,-52.78364 16.49586,-7.17988 38.61536,3.84532 38.92724,22.84268 l 0.1196,3.01762 0,0 z m -17.9375,0 c 0.4451,-18.71848 -27.42816,-9.0578 -17.88282,5.93704 4.84974,9.64262 18.88744,4.11564 17.88282,-5.93704 z"
       style="font-size:56px;font-style:normal;font-variant:normal;font-weight:bold;font-stretch:normal;line-height:125%;letter-spacing:0px;word-spacing:0px;fill:#a77c00;fill-opacity:1;stroke:none;font-family:Berlin Sans FB Demi;-inkscape-font-specification:Berlin Sans FB Demi Bold" />
    <path
       inkscape:connector-curvature="0"
       id="path2994"
       d="m 245.6867,167.75711 c 1.50966,16.83352 -15.76898,32.37658 -32.2383,26.22264 -7.82874,-7.90476 -10.01936,5.0319 -20.74962,0.67932 -14.44284,1.3169 -1.82714,-20.82908 -5.70882,-29.34922 0.4874,-15.88878 -0.92806,-32.15734 -1.25452,-47.78316 9.05784,-0.51014 27.08012,-6.92506 20.8086,9.35156 0.31078,6.8217 -4.03344,25.4612 6.98632,14.1914 15.46998,-6.11726 32.64804,7.43304 32.05882,23.68564 l 0.0974,3.00182 8e-5,0 z m -19.79686,-0.60158 c 0.2188,-18.7251 -28.37444,-9.13094 -18.51516,6.28224 5.2604,9.06978 19.62084,4.1448 18.51516,-6.28224 z"
       style="font-size:56px;font-style:normal;font-variant:normal;font-weight:bold;font-stretch:normal;line-height:125%;letter-spacing:0px;word-spacing:0px;fill:#00a724;fill-opacity:1;stroke:none;font-family:Berlin Sans FB Demi;-inkscape-font-specification:Berlin Sans FB Demi Bold" />
    <path
       inkscape:connector-curvature="0"
       id="path2996"
       d="m 305.07734,167.59303 c 1.615,18.86372 -18.7194,32.83834 -36.09548,26.92334 -24.19784,-5.5852 -25.694,-44.25652 -2.95142,-52.78364 16.49586,-7.17988 38.61538,3.84534 38.92726,22.84268 l 0.1196,3.01762 z m -17.9375,0 c 0.44506,-18.71848 -27.42816,-9.0578 -17.88282,5.93704 4.84974,9.64264 18.88742,4.11562 17.88282,-5.93704 z"
       style="font-size:56px;font-style:normal;font-variant:normal;font-weight:bold;font-stretch:normal;line-height:125%;letter-spacing:0px;word-spacing:0px;fill:#000000;fill-opacity:1;stroke:none;font-family:Berlin Sans FB Demi;-inkscape-font-specification:Berlin Sans FB Demi Bold" />
    <path
       inkscape:connector-curvature="0"
       id="path2998"
       d="m 383.4992,155.72585 c 0.83156,19.82568 -15.23206,39.84236 -35.98436,38.99218 -10.66592,-1.8015 -28.32416,3.9483 -35.1568,-3.07474 1.18356,-24.05714 0.88416,-48.11578 -0.008,-72.17512 12.66952,-3.65328 28.59428,-1.58748 42.27682,-0.41012 17.87528,2.25838 28.93866,19.63208 28.8716,36.6678 z m -20.9453,0 c 1.32826,-14.63226 -15.0224,-25.55394 -28.18458,-19.9028 0.1658,12.9429 -3.48444,30.1478 1.66112,41.2993 14.34322,3.87368 27.54338,-6.35956 26.52346,-21.3965 z"
       style="font-size:56px;font-style:normal;font-variant:normal;font-weight:bold;font-stretch:normal;line-height:125%;letter-spacing:0px;word-spacing:0px;fill:#004b6e;fill-opacity:1;stroke:none;font-family:Berlin Sans FB Demi;-inkscape-font-specification:Berlin Sans FB Demi Bold" />
    <path
       inkscape:connector-curvature="0"
       id="path3000"
       d="m 459.29608,191.43679 c -9.8316,9.53498 -28.27954,2.67006 -30.56946,-11.89452 -1.86726,-11.68494 -17.40498,-21.18894 -14.47252,-3.27954 0.80518,9.43394 3.1856,23.1147 -11.28614,18.67406 -19.77136,4.05196 -7.34014,-21.74354 -9.9245,-32.53476 0.58656,-14.77116 -1.45838,-29.63836 -0.7259,-44.32846 9.6027,0.97074 28.06088,-5.69852 22.03946,10.92678 -2.045,9.421 -1.25828,26.92852 12.18126,15.3505 9.1152,-8.99202 5.67874,-32.55864 24.04194,-26.27742 17.22268,-2.58076 0.37766,21.9989 -3.3402,29.64398 -16.80218,8.07658 2.91708,20.60966 6.3805,31.53756 2.11224,3.9321 4.74126,7.7541 5.67556,12.18182 z"
       style="font-size:56px;font-style:normal;font-variant:normal;font-weight:bold;font-stretch:normal;line-height:125%;letter-spacing:0px;word-spacing:0px;fill:#a41200;fill-opacity:1;stroke:none;font-family:Berlin Sans FB Demi;-inkscape-font-specification:Berlin Sans FB Demi Bold" />
  </g>
</svg>
